<svg xmlns="http://www.w3.org/2000/svg" width="48" height="48" viewBox="0 0 48 48">
  <defs>
    <linearGradient id="amberGrad" x1="0%" y1="0%" x2="100%" y2="100%">
      <stop offset="0%" style="stop-color:#fbbf24"/>
      <stop offset="100%" style="stop-color:#d97706"/>
    </linearGradient>
  </defs>
  
  <!-- Background -->
  <rect width="48" height="48" rx="8" fill="#0a0a0f"/>
  
  <!-- Chat bubble -->
  <path d="M8 14 L8 26 Q8 28 10 28 L16 28 L16 32 L20 28 L24 28 Q26 28 26 26 L26 14 Q26 12 24 12 L10 12 Q8 12 8 14 Z" 
        fill="url(#amberGrad)"/>
  
  <!-- Dots -->
  <circle cx="13" cy="20" r="1.5" fill="#0a0a0f"/>
  <circle cx="18" cy="20" r="1.5" fill="#0a0a0f"/>
  <circle cx="23" cy="20" r="1.5" fill="#0a0a0f"/>
  
  <!-- Arrow -->
  <path d="M28 20 L34 20 L34 17 L40 22 L34 27 L34 24 L28 24 Z" fill="url(#amberGrad)"/>
  
  <!-- Book -->
  <rect x="32" y="14" width="10" height="22" rx="2" fill="none" stroke="url(#amberGrad)" stroke-width="2"/>
  <line x1="34" y1="18" x2="40" y2="18" stroke="url(#amberGrad)" stroke-width="1" opacity="0.5"/>
  <line x1="34" y1="22" x2="40" y2="22" stroke="url(#amberGrad)" stroke-width="1" opacity="0.5"/>
  <line x1="34" y1="26" x2="40" y2="26" stroke="url(#amberGrad)" stroke-width="1" opacity="0.5"/>
</svg>
